<?xml version="1.0" standalone="no"?>
<!DOCTYPE svg PUBLIC "-//W3C//DTD SVG 20010904//EN"
 "http://www.w3.org/TR/2001/REC-SVG-20010904/DTD/svg10.dtd">
<svg version="1.0" xmlns="http://www.w3.org/2000/svg"
 width="16.000000pt" height="16.000000pt" viewBox="0 0 16.000000 16.000000"
 preserveAspectRatio="xMidYMid meet">

<g transform="translate(0.000000,16.000000) scale(0.100000,-0.100000)"
fill="#000000" stroke="none">
<path d="M42 123 c12 -3 18 -18 21 -51 l3 -47 2 53 c2 48 0 52 -20 51 -17 -1
-18 -3 -6 -6z"/>
<path d="M92 78 l2 -53 3 47 c3 33 9 48 21 51 12 3 11 5 -5 6 -21 1 -23 -3
-21 -51z"/>
<path d="M63 3 c9 -2 25 -2 35 0 9 3 1 5 -18 5 -19 0 -27 -2 -17 -5z"/>
</g>
</svg>
